<svg width="192" height="16" viewBox="0 0 192 16" fill="none" xmlns="http://www.w3.org/2000/svg">
<g filter="url(#filter0_d_109_2)">
<path fill-rule="evenodd" clip-rule="evenodd" d="M102.089 1.09507H93.0113C92.5652 1.09507 92.1943 1.45683 92.1943 1.89192V5.29934C92.1943 5.73444 92.5652 6.0962 93.0113 6.0962H97.1117H98.8361H100.761H101.277C101.723 6.0962 102.094 5.73933 102.094 5.29934V4.9278V4.81536V4.14561H100.966H94.6054V3.04566H103.217V3.59319V4.14072V6.09131V7.19127H102.089V6.62907C101.748 6.96639 101.277 7.18149 100.756 7.19127H100.711H98.8311H97.1067H93.0063C91.9386 7.19127 91.0664 6.34064 91.0664 5.29934V1.89192C91.0664 0.850633 91.9386 0 93.0063 0H103.212V1.09996H102.089V1.09507Z" fill="white"/>
<path fill-rule="evenodd" clip-rule="evenodd" d="M106.192 0H107.322H117.197C118.367 0 119.326 0.932473 119.326 2.06999C119.326 3.20751 118.367 4.13998 117.197 4.13998H114.802L120.079 7.18639H117.87L112.593 4.13998V3.0464H117.197C117.744 3.0464 118.196 2.60702 118.196 2.07487C118.196 1.54273 117.744 1.10334 117.197 1.10334H107.322V2.07487V3.0464V4.14487V7.19127H106.192V0Z" fill="white"/>
<path fill-rule="evenodd" clip-rule="evenodd" d="M139.421 7.19127L136.931 4.76812L136.13 3.99135L132.029 0H130.447L123.055 7.19127H124.631L131.238 0.771889L134.553 3.99135L135.678 5.09056L137.844 7.19127H139.421Z" fill="white"/>
<path fill-rule="evenodd" clip-rule="evenodd" d="M142.396 0H143.484H152.993C154.12 0 155.043 0.933106 155.043 2.0714C155.043 3.20969 154.12 4.1428 152.993 4.1428H150.687H148.56H143.484V7.19127H142.396V3.04847H143.484H152.993C153.52 3.04847 153.955 2.60879 153.955 2.07628C153.955 1.54378 153.52 1.10409 152.993 1.10409H143.484H142.396V0Z" fill="white"/>
<path fill-rule="evenodd" clip-rule="evenodd" d="M159.143 0H158.02V3.04847V4.14768V7.19127H159.143V4.14768H169.047V7.19127H170.17V4.14768V3.04847V0H169.047V3.04847H159.143V0Z" fill="white"/>
<path fill-rule="evenodd" clip-rule="evenodd" d="M184.912 0L180.092 2.95077L175.267 0H173.146L179.032 3.59563L173.146 7.19127H175.267L180.092 4.24539L184.912 7.19127H187.033L181.153 3.59563L187.033 0H184.912Z" fill="white"/>
<path fill-rule="evenodd" clip-rule="evenodd" d="M15.5694 1.09513H6.67672C6.23969 1.09513 5.87632 1.45689 5.87632 1.89199V5.29941C5.87632 5.7345 6.23969 6.09626 6.67672 6.09626H10.6934H12.3826H14.2682H14.7739C15.211 6.09626 15.5743 5.73939 15.5743 5.29941V4.92786V4.81542V4.14567H14.4695H8.23822V3.04572H16.6743V3.59325V4.14079V6.09137V7.19133H15.5694V6.62913C15.2355 6.96645 14.774 7.18155 14.2633 7.19133H14.2191H12.3777H10.6885H6.6718C5.62589 7.19133 4.77148 6.3407 4.77148 5.29941V1.89199C4.77148 0.850694 5.62589 6.10352e-05 6.6718 6.10352e-05H16.6694V1.10002H15.5694V1.09513Z" fill="white"/>
<path fill-rule="evenodd" clip-rule="evenodd" d="M20.7543 6.09701H31.5522V7.19133H20.7543H19.6494V6.09701V6.10352e-05H20.7543V6.09701Z" fill="white"/>
<path fill-rule="evenodd" clip-rule="evenodd" d="M35.7682 6.10352e-05H34.5283V7.19133H35.7682V6.10352e-05Z" fill="white"/>
<path fill-rule="evenodd" clip-rule="evenodd" d="M39.8445 1.09927H44.1429V7.19133H45.2482V1.09927H50.6469V6.10352e-05H45.2482H44.1429H39.8445H38.7441V1.09927H39.8445Z" fill="white"/>
<path fill-rule="evenodd" clip-rule="evenodd" d="M53.6221 6.10352e-05H65.2253V1.24583L56.0085 6.09701H65.5249V7.19133H58.6945H53.9265H53.6221V6.10678V6.09701H53.6515L63.1384 1.09927H53.6221V6.10352e-05Z" fill="white"/>
<path fill-rule="evenodd" clip-rule="evenodd" d="M79.8464 6.10352e-05L75.1939 2.95083L70.5462 6.10352e-05H68.501L74.1713 3.5957L74.6511 3.89859V7.19133H75.7415V3.89859L76.2165 3.5957L81.8916 6.10352e-05H79.8464Z" fill="white"/>
</g>
<defs>
<filter id="filter0_d_109_2" x="0.771484" y="0" width="190.262" height="15.1913" filterUnits="userSpaceOnUse" color-interpolation-filters="sRGB">
<feFlood flood-opacity="0" result="BackgroundImageFix"/>
<feColorMatrix in="SourceAlpha" type="matrix" values="0 0 0 0 0 0 0 0 0 0 0 0 0 0 0 0 0 0 127 0" result="hardAlpha"/>
<feOffset dy="4"/>
<feGaussianBlur stdDeviation="2"/>
<feComposite in2="hardAlpha" operator="out"/>
<feColorMatrix type="matrix" values="0 0 0 0 0 0 0 0 0 0 0 0 0 0 0 0 0 0 0.25 0"/>
<feBlend mode="normal" in2="BackgroundImageFix" result="effect1_dropShadow_109_2"/>
<feBlend mode="normal" in="SourceGraphic" in2="effect1_dropShadow_109_2" result="shape"/>
</filter>
</defs>
</svg>
